<?xml version="1.0" standalone="no"?>
<!DOCTYPE svg PUBLIC "-//W3C//DTD SVG 20010904//EN"
 "http://www.w3.org/TR/2001/REC-SVG-20010904/DTD/svg10.dtd">
<svg version="1.0" xmlns="http://www.w3.org/2000/svg"
 width="150.000000pt" height="150.000000pt" viewBox="0 0 150.000000 150.000000"
 preserveAspectRatio="xMidYMid meet">
<metadata>
Created by potrace 1.11, written by Peter Selinger 2001-2013
</metadata>
<g transform="translate(0.000000,150.000000) scale(0.100000,-0.100000)"
fill="#000000" stroke="none">
<path d="M574 1355 c-9 -35 3 -76 31 -105 13 -14 26 -38 29 -54 7 -37 10 -40
34 -27 11 6 22 8 25 5 12 -12 24 33 16 61 -9 33 -79 119 -110 135 -15 9 -20 6
-25 -15z"/>
<path d="M824 1343 c-33 -44 -58 -118 -52 -149 2 -11 12 -19 26 -20 17 -1 22
4 22 24 0 14 10 37 23 51 19 22 22 34 17 81 l-5 55 -31 -42z"/>
<path d="M934 1261 c-20 -24 -44 -89 -44 -118 0 -14 28 -17 55 -7 26 10 48 62
41 99 -10 49 -27 58 -52 26z"/>
<path d="M446 1272 c-13 -21 15 -85 53 -123 40 -41 41 -41 49 -18 19 51 -76
182 -102 141z"/>
<path d="M1064 1142 c-29 -26 -57 -57 -63 -70 -15 -28 -5 -62 16 -62 21 0 114
80 132 112 11 22 11 28 -5 47 -10 11 -21 21 -24 21 -3 -1 -28 -22 -56 -48z"/>
<path d="M330 1160 c0 -32 20 -63 62 -98 32 -25 44 -30 54 -21 22 18 18 26
-37 85 -54 56 -79 67 -79 34z"/>
<path d="M655 1113 c-11 -2 -47 -23 -79 -46 -47 -33 -68 -57 -98 -112 -47 -87
-60 -132 -61 -215 -1 -111 61 -211 184 -298 71 -51 171 -50 287 3 53 24 152
115 152 139 0 8 11 48 25 90 30 91 31 127 6 181 -31 68 -70 105 -150 142 -91
41 -119 40 -217 -9 -87 -43 -126 -98 -132 -188 -8 -109 11 -151 92 -200 52
-31 123 -32 189 0 26 12 47 26 47 30 0 5 7 16 16 24 17 18 28 79 19 113 -3 12
-33 43 -66 68 -54 41 -66 46 -95 40 -19 -3 -38 -15 -44 -25 -12 -23 -11 -118
2 -126 13 -9 17 -2 24 42 3 21 9 43 14 47 4 5 29 -12 55 -37 l47 -46 -22 -31
c-38 -52 -61 -57 -127 -23 -63 32 -83 61 -87 122 -5 83 31 130 126 163 31 11
44 10 90 -5 29 -9 67 -26 84 -38 43 -30 84 -98 84 -140 0 -121 -98 -258 -195
-274 -61 -9 -139 5 -183 33 -63 41 -143 174 -156 259 -5 30 0 48 31 101 22 37
51 72 69 83 19 10 34 28 36 42 3 25 -1 24 176 27 81 1 93 14 41 45 -30 18
-135 29 -184 19z"/>
<path d="M258 1043 c-6 -69 14 -96 86 -117 82 -24 82 -5 1 70 -38 35 -73 64
-77 64 -5 0 -9 -8 -10 -17z"/>
<path d="M1270 997 c-5 -4 -127 -16 -177 -17 -17 0 -21 -5 -18 -22 7 -33 23
-39 105 -37 78 2 120 14 120 34 0 14 -24 48 -30 42z"/>
<path d="M210 826 c0 -30 24 -56 53 -57 12 -1 32 -3 45 -4 27 -3 53 20 46 40
-6 15 -85 45 -121 45 -18 0 -23 -6 -23 -24z"/>
<path d="M1125 829 c12 -62 127 -103 157 -57 14 23 3 31 -67 55 -85 29 -95 29
-90 2z"/>
<path d="M1106 701 c-19 -31 81 -130 132 -131 57 0 30 53 -57 111 -46 30 -66
35 -75 20z"/>
<path d="M275 666 c-44 -8 -61 -16 -63 -29 -8 -40 100 -44 130 -4 32 41 18 48
-67 33z"/>
<path d="M1070 554 c0 -23 14 -44 65 -97 51 -54 75 -56 75 -7 0 47 -16 68 -72
95 -61 29 -68 30 -68 9z"/>
<path d="M389 550 c-8 -5 -27 -11 -41 -14 -33 -6 -68 -27 -69 -43 -1 -7 -2
-19 -3 -25 -3 -20 15 -39 28 -30 6 5 37 19 69 32 50 20 58 26 53 44 -3 12 -6
27 -6 34 0 14 -9 15 -31 2z"/>
<path d="M977 478 c-11 -30 17 -203 35 -214 25 -15 54 127 36 178 -14 40 -60
63 -71 36z"/>
<path d="M462 430 c-44 -20 -59 -40 -68 -94 -4 -31 -2 -36 14 -36 10 0 37 16
59 35 23 19 46 35 51 35 17 0 34 29 27 48 -8 28 -37 32 -83 12z"/>
<path d="M863 328 c5 -58 25 -123 42 -140 4 -4 13 -4 20 -1 11 4 13 23 9 86
-5 65 -10 86 -26 100 -40 34 -51 23 -45 -45z"/>
<path d="M585 285 c-15 -47 -23 -89 -20 -95 18 -30 64 10 72 62 2 18 11 43 19
55 8 12 14 31 14 43 0 16 -6 20 -30 20 -28 0 -30 -3 -55 -85z"/>
<path d="M735 319 c3 -23 7 -45 9 -48 2 -3 7 -33 11 -66 3 -32 9 -63 11 -67
19 -30 44 31 44 104 0 66 -28 118 -64 118 -13 0 -15 -8 -11 -41z"/>
</g>
</svg>
